# MagicaVoxel @ Ephtracy

# group
o 

# material
mtllib Corridor_DOOR.mtl
usemtl palette

# normals
vn -1 0 0
vn 1 0 0
vn 0 0 1
vn 0 0 -1
vn 0 -1 0
vn 0 1 0

# texcoords
vt 0.970703 0.5
vt 0.974609 0.5
vt 0.978516 0.5
vt 0.982422 0.5

# verts
v -0.4 0.1 0.4
v -0.4 0.1 -0.3
v -0.4 0.1 -0.4
v -0.4 0.7 0.4
v -0.4 0.7 -0.3
v -0.4 0.7 -0.4
v -0.3 0 0.4
v -0.3 0 -0.3
v -0.3 0 -0.4
v -0.3 0.1 0.4
v -0.3 0.1 -0.3
v -0.3 0.1 -0.4
v -0.3 0.7 0.4
v -0.3 0.7 -0.3
v -0.3 0.7 -0.4
v -0.3 0.8 0.4
v -0.3 0.8 -0.3
v -0.3 0.8 -0.4
v -0.1 0.5 0.4
v -0.1 0.5 -0.1
v -0.1 0.6 0.4
v -0.1 0.6 -0.1
v 0.2 0.1 0.4
v 0.2 0.1 -0.3
v 0.2 0.1 -0.4
v 0.2 0.2 0.4
v 0.2 0.2 -0.3
v 0.2 0.2 -0.4
v 0.2 0.5 0.4
v 0.2 0.5 -0.1
v 0.2 0.5 -0.2
v 0.2 0.5 -0.3
v 0.2 0.5 -0.4
v 0.2 0.6 0.4
v 0.2 0.6 -0.1
v 0.2 0.6 -0.2
v 0.2 0.6 -0.3
v 0.2 0.6 -0.4
v 0.3 0.2 0.4
v 0.3 0.2 -0.3
v 0.3 0.2 -0.4
v 0.3 0.5 0.4
v 0.3 0.5 -0.3
v 0.3 0.5 -0.4
v -0.3 0.2 0.4
v -0.3 0.2 -0.3
v -0.3 0.2 -0.4
v -0.3 0.5 0.4
v -0.3 0.5 -0.3
v -0.3 0.5 -0.4
v -0.2 0.1 0.4
v -0.2 0.1 -0.3
v -0.2 0.1 -0.4
v -0.2 0.2 0.4
v -0.2 0.2 -0.3
v -0.2 0.2 -0.4
v -0.2 0.5 0.4
v -0.2 0.5 -0.1
v -0.2 0.5 -0.2
v -0.2 0.5 -0.3
v -0.2 0.5 -0.4
v -0.2 0.6 0.4
v -0.2 0.6 -0.1
v -0.2 0.6 -0.2
v -0.2 0.6 -0.3
v -0.2 0.6 -0.4
v 0.1 0.5 0.4
v 0.1 0.5 -0.1
v 0.1 0.6 0.4
v 0.1 0.6 -0.1
v 0.3 0 0.4
v 0.3 0 -0.3
v 0.3 0 -0.4
v 0.3 0.1 0.4
v 0.3 0.1 -0.3
v 0.3 0.1 -0.4
v 0.3 0.7 0.4
v 0.3 0.7 -0.3
v 0.3 0.7 -0.4
v 0.3 0.8 0.4
v 0.3 0.8 -0.3
v 0.3 0.8 -0.4
v 0.4 0.1 0.4
v 0.4 0.1 -0.3
v 0.4 0.1 -0.4
v 0.4 0.7 0.4
v 0.4 0.7 -0.3
v 0.4 0.7 -0.4
v -0.4 0.1 0.4
v -0.4 0.7 0.4
v -0.3 0 0.4
v -0.3 0.1 0.4
v -0.3 0.2 0.4
v -0.3 0.5 0.4
v -0.3 0.7 0.4
v -0.3 0.8 0.4
v -0.2 0.1 0.4
v -0.2 0.2 0.4
v -0.2 0.5 0.4
v -0.2 0.6 0.4
v -0.2 0.7 0.4
v -0.1 0 0.4
v -0.1 0.1 0.4
v -0.1 0.5 0.4
v -0.1 0.6 0.4
v -0.1 0.7 0.4
v 0.1 0 0.4
v 0.1 0.1 0.4
v 0.1 0.5 0.4
v 0.1 0.6 0.4
v 0.1 0.7 0.4
v 0.2 0.1 0.4
v 0.2 0.2 0.4
v 0.2 0.5 0.4
v 0.2 0.6 0.4
v 0.2 0.7 0.4
v 0.3 0 0.4
v 0.3 0.1 0.4
v 0.3 0.2 0.4
v 0.3 0.5 0.4
v 0.3 0.7 0.4
v 0.3 0.8 0.4
v 0.4 0.1 0.4
v 0.4 0.7 0.4
v -0.2 0.5 -0.1
v -0.2 0.6 -0.1
v -0.1 0.5 -0.1
v -0.1 0.6 -0.1
v 0.1 0.5 -0.1
v 0.1 0.6 -0.1
v 0.2 0.5 -0.1
v 0.2 0.6 -0.1
v -0.2 0.5 -0.2
v -0.2 0.6 -0.2
v 0.2 0.5 -0.2
v 0.2 0.6 -0.2
v -0.4 0.1 -0.4
v -0.4 0.7 -0.4
v -0.3 0 -0.4
v -0.3 0.1 -0.4
v -0.3 0.2 -0.4
v -0.3 0.5 -0.4
v -0.3 0.7 -0.4
v -0.3 0.8 -0.4
v -0.2 0.1 -0.4
v -0.2 0.2 -0.4
v -0.2 0.5 -0.4
v -0.2 0.6 -0.4
v 0.2 0.1 -0.4
v 0.2 0.2 -0.4
v 0.2 0.5 -0.4
v 0.2 0.6 -0.4
v 0.3 0 -0.4
v 0.3 0.1 -0.4
v 0.3 0.2 -0.4
v 0.3 0.5 -0.4
v 0.3 0.7 -0.4
v 0.3 0.8 -0.4
v 0.4 0.1 -0.4
v 0.4 0.7 -0.4
v -0.3 0 0.4
v -0.1 0 0.4
v 0.1 0 0.4
v 0.3 0 0.4
v -0.1 0 -0.2
v 0.1 0 -0.2
v -0.3 0 -0.3
v 0.3 0 -0.3
v -0.3 0 -0.4
v 0.3 0 -0.4
v -0.4 0.1 0.4
v -0.3 0.1 0.4
v 0.3 0.1 0.4
v 0.4 0.1 0.4
v -0.4 0.1 -0.3
v -0.3 0.1 -0.3
v 0.3 0.1 -0.3
v 0.4 0.1 -0.3
v -0.4 0.1 -0.4
v -0.3 0.1 -0.4
v 0.3 0.1 -0.4
v 0.4 0.1 -0.4
v -0.3 0.5 0.4
v -0.2 0.5 0.4
v -0.1 0.5 0.4
v 0.1 0.5 0.4
v 0.2 0.5 0.4
v 0.3 0.5 0.4
v -0.2 0.5 -0.1
v -0.1 0.5 -0.1
v 0.1 0.5 -0.1
v 0.2 0.5 -0.1
v -0.2 0.5 -0.2
v 0.2 0.5 -0.2
v -0.3 0.5 -0.3
v -0.2 0.5 -0.3
v 0.2 0.5 -0.3
v 0.3 0.5 -0.3
v -0.3 0.5 -0.4
v -0.2 0.5 -0.4
v 0.2 0.5 -0.4
v 0.3 0.5 -0.4
v -0.2 0.6 0.4
v -0.1 0.6 0.4
v 0.1 0.6 0.4
v 0.2 0.6 0.4
v -0.2 0.6 -0.1
v -0.1 0.6 -0.1
v 0.1 0.6 -0.1
v 0.2 0.6 -0.1
v -0.2 0.6 -0.2
v 0.2 0.6 -0.2
v -0.2 0.6 -0.3
v 0.2 0.6 -0.3
v -0.2 0.6 -0.4
v 0.2 0.6 -0.4
v -0.2 0.1 0.4
v -0.1 0.1 0.4
v 0.1 0.1 0.4
v 0.2 0.1 0.4
v -0.1 0.1 -0.2
v 0.1 0.1 -0.2
v -0.2 0.1 -0.3
v 0.2 0.1 -0.3
v -0.2 0.1 -0.4
v 0.2 0.1 -0.4
v -0.3 0.2 0.4
v -0.2 0.2 0.4
v 0.2 0.2 0.4
v 0.3 0.2 0.4
v -0.3 0.2 -0.3
v -0.2 0.2 -0.3
v 0.2 0.2 -0.3
v 0.3 0.2 -0.3
v -0.3 0.2 -0.4
v -0.2 0.2 -0.4
v 0.2 0.2 -0.4
v 0.3 0.2 -0.4
v -0.4 0.7 0.4
v -0.3 0.7 0.4
v 0.3 0.7 0.4
v 0.4 0.7 0.4
v -0.4 0.7 -0.3
v -0.3 0.7 -0.3
v 0.3 0.7 -0.3
v 0.4 0.7 -0.3
v -0.4 0.7 -0.4
v -0.3 0.7 -0.4
v 0.3 0.7 -0.4
v 0.4 0.7 -0.4
v -0.3 0.8 0.4
v 0.3 0.8 0.4
v -0.3 0.8 -0.3
v 0.3 0.8 -0.3
v -0.3 0.8 -0.4
v 0.3 0.8 -0.4

# faces
f 4/1/1 2/1/1 1/1/1
f 5/4/1 3/4/1 2/4/1
f 5/1/1 2/1/1 4/1/1
f 6/4/1 3/4/1 5/4/1
f 10/1/1 8/1/1 7/1/1
f 11/4/1 9/4/1 8/4/1
f 11/1/1 8/1/1 10/1/1
f 12/4/1 9/4/1 11/4/1
f 16/1/1 14/1/1 13/1/1
f 17/4/1 15/4/1 14/4/1
f 17/1/1 14/1/1 16/1/1
f 18/4/1 15/4/1 17/4/1
f 21/1/1 20/1/1 19/1/1
f 22/1/1 20/1/1 21/1/1
f 26/1/1 24/1/1 23/1/1
f 27/4/1 25/4/1 24/4/1
f 27/1/1 24/1/1 26/1/1
f 28/4/1 25/4/1 27/4/1
f 34/1/1 30/1/1 29/1/1
f 35/1/1 30/1/1 34/1/1
f 36/1/1 32/1/1 31/1/1
f 37/4/1 33/4/1 32/4/1
f 37/1/1 32/1/1 36/1/1
f 38/4/1 33/4/1 37/4/1
f 42/1/1 40/1/1 39/1/1
f 43/4/1 41/4/1 40/4/1
f 43/1/1 40/1/1 42/1/1
f 44/4/1 41/4/1 43/4/1
f 45/1/2 46/1/2 48/1/2
f 46/4/2 47/4/2 49/4/2
f 48/1/2 46/1/2 49/1/2
f 49/4/2 47/4/2 50/4/2
f 51/1/2 52/1/2 54/1/2
f 52/4/2 53/4/2 55/4/2
f 54/1/2 52/1/2 55/1/2
f 55/4/2 53/4/2 56/4/2
f 57/1/2 58/1/2 62/1/2
f 62/1/2 58/1/2 63/1/2
f 59/1/2 60/1/2 64/1/2
f 60/4/2 61/4/2 65/4/2
f 64/1/2 60/1/2 65/1/2
f 65/4/2 61/4/2 66/4/2
f 67/1/2 68/1/2 69/1/2
f 69/1/2 68/1/2 70/1/2
f 71/1/2 72/1/2 74/1/2
f 72/4/2 73/4/2 75/4/2
f 74/1/2 72/1/2 75/1/2
f 75/4/2 73/4/2 76/4/2
f 77/1/2 78/1/2 80/1/2
f 78/4/2 79/4/2 81/4/2
f 80/1/2 78/1/2 81/1/2
f 81/4/2 79/4/2 82/4/2
f 83/1/2 84/1/2 86/1/2
f 84/4/2 85/4/2 87/4/2
f 86/1/2 84/1/2 87/1/2
f 87/4/2 85/4/2 88/4/2
f 92/1/3 90/1/3 89/1/3
f 93/1/3 90/1/3 92/1/3
f 94/1/3 90/1/3 93/1/3
f 95/1/3 90/1/3 94/1/3
f 97/1/3 92/1/3 91/1/3
f 97/1/3 93/1/3 92/1/3
f 98/1/3 93/1/3 97/1/3
f 99/1/3 96/1/3 95/1/3
f 99/1/3 95/1/3 94/1/3
f 100/1/3 96/1/3 99/1/3
f 101/1/3 96/1/3 100/1/3
f 102/1/3 97/1/3 91/1/3
f 103/1/3 97/1/3 102/1/3
f 105/3/3 101/3/3 100/3/3
f 106/1/3 96/1/3 101/1/3
f 106/3/3 101/3/3 105/3/3
f 107/2/3 103/2/3 102/2/3
f 108/2/3 103/2/3 107/2/3
f 109/1/3 105/1/3 104/1/3
f 109/1/3 106/1/3 105/1/3
f 110/1/3 106/1/3 109/1/3
f 111/1/3 96/1/3 106/1/3
f 111/1/3 106/1/3 110/1/3
f 112/1/3 108/1/3 107/1/3
f 115/3/3 111/3/3 110/3/3
f 116/1/3 96/1/3 111/1/3
f 116/3/3 111/3/3 115/3/3
f 117/1/3 113/1/3 112/1/3
f 117/1/3 112/1/3 107/1/3
f 118/1/3 113/1/3 117/1/3
f 119/1/3 113/1/3 118/1/3
f 120/1/3 115/1/3 114/1/3
f 120/1/3 116/1/3 115/1/3
f 121/1/3 96/1/3 116/1/3
f 121/1/3 116/1/3 120/1/3
f 122/1/3 96/1/3 121/1/3
f 123/1/3 119/1/3 118/1/3
f 123/1/3 120/1/3 119/1/3
f 123/1/3 121/1/3 120/1/3
f 124/1/3 121/1/3 123/1/3
f 127/1/3 126/1/3 125/1/3
f 128/1/3 126/1/3 127/1/3
f 131/1/3 130/1/3 129/1/3
f 132/1/3 130/1/3 131/1/3
f 133/1/4 134/1/4 135/1/4
f 135/1/4 134/1/4 136/1/4
f 137/4/4 138/4/4 140/4/4
f 140/4/4 138/4/4 141/4/4
f 141/4/4 138/4/4 142/4/4
f 142/4/4 138/4/4 143/4/4
f 139/4/4 140/4/4 145/4/4
f 140/4/4 141/4/4 145/4/4
f 145/4/4 141/4/4 146/4/4
f 143/4/4 144/4/4 147/4/4
f 142/4/4 143/4/4 147/4/4
f 147/4/4 144/4/4 148/4/4
f 139/4/4 145/4/4 149/4/4
f 148/4/4 144/4/4 152/4/4
f 149/4/4 150/4/4 153/4/4
f 139/4/4 149/4/4 153/4/4
f 153/4/4 150/4/4 154/4/4
f 154/4/4 150/4/4 155/4/4
f 151/4/4 152/4/4 156/4/4
f 152/4/4 144/4/4 157/4/4
f 156/4/4 152/4/4 157/4/4
f 157/4/4 144/4/4 158/4/4
f 154/4/4 155/4/4 159/4/4
f 155/4/4 156/4/4 159/4/4
f 156/4/4 157/4/4 159/4/4
f 159/4/4 157/4/4 160/4/4
f 165/1/5 162/1/5 161/1/5
f 165/2/5 163/2/5 162/2/5
f 166/1/5 164/1/5 163/1/5
f 166/2/5 163/2/5 165/2/5
f 167/1/5 165/1/5 161/1/5
f 167/1/5 166/1/5 165/1/5
f 168/1/5 164/1/5 166/1/5
f 168/1/5 166/1/5 167/1/5
f 169/4/5 168/4/5 167/4/5
f 170/4/5 168/4/5 169/4/5
f 175/1/5 172/1/5 171/1/5
f 176/1/5 172/1/5 175/1/5
f 177/1/5 174/1/5 173/1/5
f 178/1/5 174/1/5 177/1/5
f 179/4/5 176/4/5 175/4/5
f 180/4/5 176/4/5 179/4/5
f 181/4/5 178/4/5 177/4/5
f 182/4/5 178/4/5 181/4/5
f 189/1/5 184/1/5 183/1/5
f 190/1/5 186/1/5 185/1/5
f 191/1/5 186/1/5 190/1/5
f 192/1/5 188/1/5 187/1/5
f 193/1/5 191/1/5 190/1/5
f 193/1/5 192/1/5 191/1/5
f 193/1/5 189/1/5 183/1/5
f 193/1/5 190/1/5 189/1/5
f 194/1/5 188/1/5 192/1/5
f 194/1/5 192/1/5 193/1/5
f 195/1/5 193/1/5 183/1/5
f 196/1/5 193/1/5 195/1/5
f 197/1/5 188/1/5 194/1/5
f 198/1/5 188/1/5 197/1/5
f 199/4/5 196/4/5 195/4/5
f 200/4/5 196/4/5 199/4/5
f 201/4/5 198/4/5 197/4/5
f 202/4/5 198/4/5 201/4/5
f 207/3/5 204/3/5 203/3/5
f 208/3/5 204/3/5 207/3/5
f 209/3/5 206/3/5 205/3/5
f 210/3/5 206/3/5 209/3/5
f 213/1/5 212/1/5 211/1/5
f 214/1/5 212/1/5 213/1/5
f 215/4/5 214/4/5 213/4/5
f 216/4/5 214/4/5 215/4/5
f 217/1/6 218/1/6 221/1/6
f 218/2/6 219/2/6 221/2/6
f 219/1/6 220/1/6 222/1/6
f 221/2/6 219/2/6 222/2/6
f 217/1/6 221/1/6 223/1/6
f 221/1/6 222/1/6 223/1/6
f 222/1/6 220/1/6 224/1/6
f 223/1/6 222/1/6 224/1/6
f 223/4/6 224/4/6 225/4/6
f 225/4/6 224/4/6 226/4/6
f 227/1/6 228/1/6 231/1/6
f 231/1/6 228/1/6 232/1/6
f 229/1/6 230/1/6 233/1/6
f 233/1/6 230/1/6 234/1/6
f 231/4/6 232/4/6 235/4/6
f 235/4/6 232/4/6 236/4/6
f 233/4/6 234/4/6 237/4/6
f 237/4/6 234/4/6 238/4/6
f 239/1/6 240/1/6 243/1/6
f 243/1/6 240/1/6 244/1/6
f 241/1/6 242/1/6 245/1/6
f 245/1/6 242/1/6 246/1/6
f 243/4/6 244/4/6 247/4/6
f 247/4/6 244/4/6 248/4/6
f 245/4/6 246/4/6 249/4/6
f 249/4/6 246/4/6 250/4/6
f 251/1/6 252/1/6 253/1/6
f 253/1/6 252/1/6 254/1/6
f 253/4/6 254/4/6 255/4/6
f 255/4/6 254/4/6 256/4/6
